<svg xmlns="http://www.w3.org/2000/svg" version="1.1" xmlns:xlink="http://www.w3.org/1999/xlink" xmlns:svgjs="http://svgjs.dev/svgjs" width="471.03" height="479.57"><svg id="SvgjsSvg1133" data-name="Ebene 1" xmlns="http://www.w3.org/2000/svg" viewBox="0 0 471.03 479.57">
  <defs>
    <style>
      .cls-1 {
        fill: #fff;
      }
    </style>
  </defs>
  <path class="cls-1" d="M440.93,122.18c-1.8-2.34-4.37-5.23-7.51-7.6,1.41,1.01,2.76,2.17,4.03,3.46,1.29,1.31,2.46,2.7,3.48,4.14Z"></path>
  <path class="cls-1" d="M455.21,320.68c-46.92,121.13-183.65,181.5-304.76,134.57-6.71-2.6-13.17-5.57-19.49-8.7l-34.37,10.25-76.32,22.76,18.45-77.48,6.64-27.92C-.13,311.53-14.11,227.88,15.87,150.48,62.79,29.35,199.52-31.01,320.64,15.92c47.09,18.23,20.22,87.6-26.87,69.37-82.86-32.11-176.42,9.2-208.52,92.07-32.11,82.88,9.2,176.42,92.07,208.52,82.88,32.11,176.42-9.2,208.52-92.07,11.12-28.69,13.42-58.65,8.25-86.9l-155.69,154.02-102.03-102.01c-12.77-12.77-12.77-33.47,0-46.24,12.78-12.77,33.47-12.77,46.24,0l56.03,56.03,152.56-150.92c10.52-10.41,26.35-12.21,38.7-5.43.34.17.67.37,1.01.57.46.27.9.56,1.36.86.39.26.77.53,1.14.8,3.14,2.37,5.71,5.25,7.51,7.6.01.04.04.09.07.11,1.83,2.4,2.84,4.18,2.84,4.18,30.44,58.09,36.87,128.37,11.37,194.2Z"></path>
</svg><style>@media (prefers-color-scheme: light) { :root { filter: contrast(1) brightness(0.1); } }
@media (prefers-color-scheme: dark) { :root { filter: contrast(0.3846153846153846) brightness(4.5); } }
</style></svg>