<svg width="394" height="106" viewBox="0 0 394 106" fill="none" xmlns="http://www.w3.org/2000/svg">
<path d="M0 104.024L0 0L20.143 0L20.143 39.6081C22.653 36.9678 25.5037 34.8482 28.6876 33.2501C31.8715 31.6517 35.6079 30.8527 39.8965 30.8527C43.4053 30.8527 46.6541 31.6605 49.643 33.2847C52.6319 34.9092 55.2067 37.2804 57.3754 40.4075C59.5441 43.5342 61.2415 47.3647 62.4762 51.9074C63.7109 56.4501 64.328 61.6098 64.328 67.4035C64.328 72.8234 63.6213 77.8267 62.2161 82.413C60.8109 86.9988 58.8374 90.986 56.3032 94.3647C53.7692 97.7434 50.7395 100.384 47.2064 102.287C43.6732 104.188 39.7664 105.135 35.4779 105.135C33.4877 105.135 31.7012 104.927 30.1171 104.51C28.5334 104.093 27.0876 103.502 25.7638 102.738C24.4397 101.974 23.2295 101.061 22.125 99.9933C21.0203 98.9247 19.9483 97.7696 18.9086 96.5188L18.1938 100.132C17.8932 101.617 17.3409 102.634 16.5368 103.19C15.7327 103.745 14.685 104.024 13.3855 104.024H0ZM32.8788 47.0433C31.4086 47.0433 30.0767 47.1912 28.8828 47.4951C27.6887 47.7991 26.5839 48.2247 25.5688 48.7807C24.5534 49.3365 23.6113 50.0399 22.7421 50.8998C21.8732 51.7598 21.0122 52.7412 20.143 53.8534L20.143 84.4279C21.6619 86.2347 23.3026 87.494 25.0814 88.2152C26.8603 88.936 28.7201 89.292 30.6695 89.292C32.6188 89.292 34.2432 88.9012 35.8027 88.111C37.3623 87.3202 38.7184 86.0609 39.864 84.3237C41.0089 82.5865 41.9106 80.3282 42.5605 77.5487C43.2101 74.7689 43.5351 71.3902 43.5351 67.4035C43.5351 63.4164 43.2752 60.411 42.7553 57.8139C42.2355 55.2167 41.5127 53.1236 40.5785 51.5252C39.6447 49.9273 38.5317 48.7807 37.2323 48.0855C35.9328 47.3907 34.4788 47.0433 32.8788 47.0433Z" fill="#F9F9F9"/>
<path d="M100.976 30.8525C105.435 30.8525 109.521 31.5909 113.224 33.076C116.928 34.5614 120.112 36.7156 122.776 39.5385C125.44 42.3617 127.52 45.8272 129.014 49.9271C130.508 54.0268 131.256 58.6739 131.256 63.8593C131.256 65.4835 131.191 66.8041 131.061 67.8203C130.931 68.8364 130.695 69.653 130.346 70.2522C129.997 70.8516 129.534 71.2684 128.949 71.503C128.364 71.7376 127.617 71.8506 126.707 71.8506H87.8508C88.5004 77.87 90.2141 82.2389 92.9839 84.9489C95.7534 87.659 99.3274 89.014 103.705 89.014C106.044 89.014 108.059 88.7102 109.748 88.1108C111.438 87.5112 112.94 86.8338 114.264 86.0954C115.588 85.3573 116.798 84.6799 117.903 84.0805C119.008 83.4809 120.169 83.1769 121.379 83.1769C122.979 83.1769 124.197 83.8023 125.018 85.0533L130.866 92.7665C128.787 95.3114 126.545 97.3874 124.141 98.9858C121.736 100.584 119.267 101.835 116.733 102.738C114.199 103.641 111.665 104.267 109.131 104.614C106.597 104.962 104.184 105.135 101.886 105.135C97.1669 105.135 92.732 104.31 88.5978 102.668C84.4636 101.027 80.8411 98.5776 77.7466 95.3374C74.6521 92.0975 72.1992 88.0672 70.4042 83.2467C68.609 78.4258 67.7075 72.8231 67.7075 66.4305C67.7075 61.6098 68.4791 57.0497 70.0142 52.7412C71.5493 48.4331 73.7586 44.6548 76.6418 41.4149C79.5253 38.1747 83.0098 35.6038 87.1035 33.7014C91.1969 31.7995 95.8185 30.8525 100.976 30.8525ZM101.366 45.723C97.5079 45.723 94.5027 46.8958 92.3342 49.2321C90.1655 51.5689 88.736 54.9388 88.0455 59.3429L113.192 59.3429C113.192 57.6315 112.989 55.9637 112.574 54.3396C112.16 52.7154 111.494 51.2734 110.56 49.9965C109.626 48.7197 108.408 47.6947 106.889 46.9043C105.37 46.1137 103.535 45.723 101.366 45.723Z" fill="#F9F9F9"/>
<path d="M163.225 105.135C160.017 105.135 157.189 104.64 154.746 103.641C152.301 102.642 150.238 101.236 148.573 99.4025C146.908 97.5698 145.64 95.3634 144.771 92.7667C143.902 90.1696 143.472 87.277 143.472 84.0803V46.8347H137.754C136.714 46.8347 135.829 46.4788 135.09 45.758C134.351 45.037 133.985 43.986 133.985 42.596V34.1883L144.706 31.9645L148.67 14.3841C149.19 12.1603 150.66 11.0486 153.088 11.0486L163.616 11.0486V32.1035H179.989V46.8347H163.616V82.6213C163.616 84.2889 163.997 85.6701 164.753 86.7558C165.506 87.8414 166.604 88.3888 168.033 88.3888C168.772 88.3888 169.39 88.3106 169.886 88.1454C170.38 87.9806 170.819 87.7982 171.186 87.5898C171.55 87.3812 171.9 87.1986 172.225 87.0339C172.549 86.8689 172.932 86.7904 173.362 86.7904C173.972 86.7904 174.458 86.9382 174.824 87.2422C175.189 87.5462 175.572 88.0152 175.961 88.6666L182.068 98.8814C179.47 100.966 176.546 102.529 173.296 103.572C170.047 104.614 166.692 105.135 163.225 105.135Z" fill="#F9F9F9"/>
<path d="M196.884 88.4586H215.077L215.077 37.385C215.077 34.8835 215.143 32.2689 215.272 29.5328L204.55 39.0528C203.861 39.6522 203.162 40.0863 202.471 40.3381C201.781 40.5901 201.107 40.7205 200.457 40.7205C199.328 40.7205 198.321 40.4511 197.436 39.9211C196.55 39.3916 195.883 38.8182 195.453 38.219L189.086 29.1854L218.586 2.71052L235.22 2.71052L235.22 88.4586H250.814V104.024L196.884 104.024V88.4586Z" fill="#F9F9F9"/>
<path d="M325.407 53.3661C325.407 62.2174 324.52 69.8784 322.743 76.3668C320.964 82.8553 318.511 88.2232 315.367 92.4881C312.225 96.753 308.504 99.9231 304.192 102.008C299.878 104.093 295.216 105.135 290.187 105.135C285.161 105.135 280.515 104.093 276.251 102.008C271.986 99.9231 268.292 96.753 265.172 92.4881C262.053 88.2232 259.617 82.8553 257.862 76.3668C256.108 69.8784 255.231 62.2174 255.231 53.3661C255.231 44.5154 256.108 36.8543 257.862 30.3657C259.617 23.8772 262.053 18.5093 265.172 14.2444C268.292 9.97968 271.986 6.818 276.251 4.7594C280.515 2.70081 285.161 1.66719 290.187 1.66719C295.216 1.66719 299.878 2.70081 304.192 4.7594C308.504 6.818 312.225 9.97968 315.367 14.2444C318.511 18.5093 320.964 23.8772 322.743 30.3657C324.52 36.8543 325.407 44.5154 325.407 53.3661ZM304.616 53.3661C304.616 46.3741 304.2 40.6412 303.38 36.1679C302.559 31.6949 301.461 28.1855 300.096 25.6406C298.733 23.0957 297.182 21.3409 295.453 20.3943C293.723 19.4473 291.968 18.9697 290.187 18.9697C288.41 18.9697 286.672 19.4473 284.959 20.3943C283.244 21.3409 281.732 23.0957 280.41 25.6406C279.086 28.1855 278.03 31.6949 277.227 36.1679C276.422 40.6412 276.024 46.3741 276.024 53.3661C276.024 60.3586 276.422 66.1523 277.227 70.5994C278.03 75.0467 279.086 78.5558 280.41 81.1267C281.732 83.6979 283.244 85.461 284.959 86.4078C286.672 87.3546 288.41 87.8324 290.187 87.8324C291.968 87.8324 293.723 87.3546 295.453 86.4078C297.182 85.461 298.733 83.6979 300.096 81.1267C301.461 78.5558 302.559 75.0467 303.38 70.5994C304.2 66.1523 304.616 60.4106 304.616 53.3661Z" fill="#F9F9F9"/>
<path d="M389.606 11.6737C389.606 13.1591 389.386 14.4969 388.958 15.704C388.527 16.9114 387.844 17.9624 386.909 18.8658C385.974 19.7692 384.759 20.4641 383.239 20.9505C381.72 21.4369 379.901 21.6801 377.78 21.6801L355.169 21.6801L352.504 38.4265C354.283 38.1056 355.988 37.8621 357.638 37.6969C359.287 37.5319 360.885 37.454 362.446 37.454C367.425 37.454 371.827 38.2617 375.635 39.8859C379.446 41.5103 382.652 43.7164 385.253 46.5219C387.854 49.3277 389.81 52.6108 391.132 56.3893C392.458 60.1676 393.115 64.2067 393.115 68.515C393.115 73.9349 392.213 78.8776 390.42 83.3507C388.622 87.824 386.124 91.6807 382.914 94.9207C379.704 98.1604 375.888 100.679 371.446 102.46C367.001 104.24 362.147 105.135 356.859 105.135C353.779 105.135 350.846 104.788 348.052 104.093C345.26 103.398 342.637 102.46 340.19 101.278C337.746 100.097 335.479 98.7338 333.401 97.179C331.321 95.624 329.437 93.9739 327.749 92.2105L333.986 83.3161C334.637 82.3867 335.392 81.6829 336.259 81.1966C337.13 80.7102 338.055 80.467 339.054 80.467C340.353 80.467 341.58 80.8489 342.727 81.6135C343.87 82.3779 345.13 83.2119 346.495 84.1151C347.859 85.0183 349.452 85.8434 351.271 86.5818C353.091 87.3202 355.34 87.6936 358.027 87.6936C360.716 87.6936 363.006 87.216 364.915 86.2692C366.824 85.3222 368.366 84.0195 369.562 82.3779C370.755 80.7364 371.615 78.8078 372.159 76.6103C372.705 74.4129 372.97 72.0587 372.97 69.5574C372.97 64.6497 371.673 60.906 369.074 58.3351C366.474 55.7639 362.796 54.4784 358.027 54.4784C353.779 54.4784 349.619 55.3383 345.55 57.0493L333.076 53.436L341.133 2.77936L389.606 2.77936V11.6737Z" fill="#F9F9F9"/>
</svg>
