<?xml version="1.0" encoding="UTF-8"?>
<svg id="Ebene_1" xmlns="http://www.w3.org/2000/svg" version="1.1" viewBox="0 0 1500 256.74">
  <!-- Generator: Adobe Illustrator 29.1.0, SVG Export Plug-In . SVG Version: 2.1.0 Build 142)  -->
  <g>
    <path d="M41.07,182.7v71.15H0V75.69c0-5.78,2.02-10.7,6.07-14.75,4.05-4.05,8.96-6.07,14.75-6.07h67.68c21.2,0,37.02,5.41,47.43,16.2,10.79,10.8,16.2,26.8,16.2,48.01,0,20.05-5.2,35.86-15.62,47.43-10.41,10.8-25.45,16.2-45.12,16.2h-50.32ZM41.07,146.84h39.91c10.79,0,18.51-2.31,23.14-6.94,5.01-4.24,7.52-11.57,7.52-21.98,0-8.87-2.31-16-6.94-21.4-5.41-4.63-12.54-6.94-21.4-6.94h-42.23v57.26Z" style="fill: #fff;"/>
    <path d="M176.45,54.87h20.83c5.4,0,10.02,1.93,13.88,5.78,3.85,3.86,5.78,8.49,5.78,13.88v12.15h-40.49v-31.81Z" style="fill: #fff;"/>
    <path d="M176.45,99.99h20.83c5.4,0,10.02,1.93,13.88,5.79,3.85,3.86,5.78,8.49,5.78,13.88v134.2h-40.49V99.99Z" style="fill: #fff;"/>
    <path d="M339.01,206.42h28.92c-4.25,16.19-12.35,28.54-24.3,37.02-11.95,8.88-27,13.3-45.12,13.3-21.98,0-39.14-7.13-51.48-21.4-12.35-13.88-18.51-33.74-18.51-59.58s5.97-43.96,17.93-57.84c12.34-14.26,29.5-21.4,51.48-21.4,23.14,0,41.07,6.94,53.79,20.82,6.94,8.49,11.95,18.32,15.04,29.5h-40.49c-1.93-3.85-3.86-6.74-5.78-8.68-5.02-5.4-12.15-8.1-21.4-8.1-8.49,0-15.43,2.7-20.83,8.1-6.94,7.72-10.41,20.44-10.41,38.18s3.47,30.28,10.41,37.6c5.01,6.17,12.53,9.25,22.56,9.25,6.55,0,12.15-1.35,16.77-4.05,1.16-.38,2.21-1.06,3.18-2.03l3.18-3.18c.77-1.16,2.31-2.69,4.63-4.63,2.32-1.93,5.79-2.89,10.41-2.89" style="fill: #fff;"/>
    <path d="M428.11,99.99v56.69l49.17-56.69h48.59l-54.95,59,55.53,94.86h-48.59l-28.34-52.06c-5.79-10.41-10.8-14.84-15.04-13.3-4.25,1.54-6.36,3.86-6.36,6.94v58.42h-40.49V54.87h20.82c5.4,0,10.02,1.94,13.88,5.79,3.85,3.86,5.79,8.3,5.79,13.3v26.03Z" style="fill: #fff;"/>
    <path d="M543.24,202.95h39.33c.38,7.72,3.27,13.5,8.68,17.35,5.79,3.86,13.5,5.78,23.14,5.78,6.94,0,12.91-1.35,17.93-4.05,4.63-2.69,6.94-6.36,6.94-10.99,0-6.94-8.1-12.15-24.29-15.62-6.94-1.16-12.15-2.31-15.62-3.47-20.45-5.01-34.13-10.99-41.07-17.93-7.72-6.94-11.57-16.2-11.57-27.76,0-14.65,5.58-26.8,16.77-36.44,11.57-8.87,26.61-13.31,45.12-13.31,20.05,0,36.06,4.44,48.01,13.31,11.18,9.64,17.15,22.18,17.93,37.6h-24.87c-7.33,0-12.92-3.27-16.77-9.83-1.54-1.54-3.09-3.08-4.63-4.63-4.63-3.47-10.99-5.21-19.09-5.21s-13.5,1.16-17.35,3.47c-3.47,2.32-5.2,5.79-5.2,10.41,0,6.17,10.02,11.38,30.08,15.62,2.31.78,4.34,1.36,6.07,1.73,1.73.39,3.37.58,4.91.58,19.67,5.02,33.35,10.8,41.07,17.35,7.32,6.94,10.99,16.2,10.99,27.77,0,16.97-6.17,30.08-18.51,39.33-11.57,8.49-28.92,12.73-52.06,12.73s-38.38-4.43-49.17-13.31c-11.19-8.87-16.77-21.78-16.77-38.75v-1.73Z" style="fill: #fff;"/>
    <path d="M986.26,253.85V95.36c0-13.88,3.66-24.29,10.99-31.23,6.94-6.55,18.31-9.83,34.13-9.83,3.85,0,6.94.2,9.25.58,4.24,0,7.52.2,9.83.58v31.81h-10.41c-5.41,0-9.26.78-11.57,2.31-1.93,1.54-2.89,4.63-2.89,9.25v10.41h24.87v8.68c0,5.78-1.93,10.51-5.79,14.17-3.86,3.67-8.3,5.49-13.3,5.49h-5.79v116.27h-39.33Z" style="fill: #fff;"/>
    <path d="M1066.68,253.85V95.36c0-13.88,3.66-24.29,10.99-31.23,6.94-6.55,18.31-9.83,34.13-9.83,3.85,0,6.94.2,9.25.58,4.24,0,7.52.2,9.83.58v31.81h-10.41c-5.41,0-9.25.78-11.57,2.31-1.94,1.54-2.89,4.63-2.89,9.25v10.41h24.87v8.68c0,5.78-1.93,10.51-5.79,14.17-3.86,3.67-8.3,5.49-13.3,5.49h-5.79v116.27h-39.33Z" style="fill: #fff;"/>
    <path d="M1150.58,54.87h20.83c5.4,0,10.02,1.93,13.88,5.78,3.85,3.86,5.78,8.49,5.78,13.88v12.15h-40.49v-31.81Z" style="fill: #fff;"/>
    <path d="M1150.58,99.99h20.83c5.4,0,10.02,1.93,13.88,5.79,3.85,3.86,5.78,8.49,5.78,13.88v134.2h-40.49V99.99Z" style="fill: #fff;"/>
    <path d="M1313.14,206.42h28.92c-4.25,16.19-12.34,28.54-24.29,37.02-11.96,8.88-27,13.3-45.12,13.3-21.98,0-39.14-7.13-51.48-21.4-12.35-13.88-18.51-33.74-18.51-59.58s5.97-43.96,17.93-57.84c12.34-14.26,29.5-21.4,51.48-21.4,23.14,0,41.07,6.94,53.79,20.82,6.94,8.49,11.95,18.32,15.04,29.5h-40.49c-1.93-3.85-3.86-6.74-5.78-8.68-5.02-5.4-12.15-8.1-21.4-8.1-8.49,0-15.43,2.7-20.83,8.1-6.94,7.72-10.41,20.44-10.41,38.18s3.47,30.28,10.41,37.6c5.01,6.17,12.53,9.25,22.56,9.25,6.56,0,12.15-1.35,16.77-4.05,1.16-.38,2.22-1.06,3.18-2.03l3.18-3.18c.77-1.16,2.31-2.69,4.63-4.63,2.31-1.93,5.79-2.89,10.41-2.89" style="fill: #fff;"/>
    <path d="M1468.77,206.42h28.92c-4.25,16.19-12.35,28.54-24.3,37.02-11.95,8.88-27,13.3-45.12,13.3-21.98,0-39.14-7.13-51.48-21.4-12.35-13.88-18.51-33.74-18.51-59.58s5.98-43.96,17.93-57.84c12.34-14.26,29.5-21.4,51.48-21.4,23.14,0,41.07,6.94,53.79,20.83,12.34,14.27,18.51,34.13,18.51,59.58v6.36c0,1.94-.2,3.28-.58,4.05h-100.07c.38,11.96,3.27,20.82,8.68,26.61,5.01,6.17,12.53,9.25,22.56,9.25,6.55,0,12.15-1.35,16.77-4.05,1.16-.38,2.22-1.06,3.18-2.02.96-.96,2.03-2.02,3.18-3.18.38-1.16,1.82-2.69,4.34-4.63,2.5-1.93,6.07-2.89,10.7-2.89M1399.35,161.3h59c-.78-10.41-3.47-18.12-8.1-23.14-5.02-5.4-12.14-8.1-21.4-8.1-8.49,0-15.43,2.7-20.82,8.1-5.41,5.4-8.3,13.11-8.68,23.14" style="fill: #fff;"/>
  </g>
  <g>
    <path d="M947.63,64.89c-.96-1.24-2.32-2.78-3.99-4.03.75.54,1.46,1.15,2.14,1.84.68.7,1.3,1.43,1.85,2.2Z" style="fill: #fff;"/>
    <path d="M955.21,170.31c-24.92,64.33-97.53,96.4-161.86,71.47-3.56-1.38-6.99-2.96-10.35-4.62l-18.25,5.45-40.54,12.09,9.8-41.15,3.53-14.83c-24.15-33.27-31.58-77.7-15.65-118.8,24.92-64.33,97.53-96.39,161.86-71.47,25.01,9.68,10.74,46.53-14.27,36.84-44.01-17.06-93.7,4.88-110.75,48.9-17.06,44.02,4.88,93.7,48.9,110.75,44.02,17.06,93.7-4.88,110.75-48.9,5.91-15.24,7.13-31.15,4.38-46.15l-82.69,81.8-54.19-54.18c-6.78-6.78-6.78-17.78,0-24.56,6.79-6.78,17.78-6.78,24.56,0l29.76,29.76,81.02-80.15c5.59-5.53,13.99-6.48,20.55-2.88.18.09.36.2.54.3.24.14.48.3.72.46.2.14.41.28.61.42,1.67,1.26,3.03,2.79,3.99,4.03,0,.02.02.05.04.06.97,1.27,1.51,2.22,1.51,2.22,16.17,30.85,19.58,68.18,6.04,103.14Z" style="fill: #fff;"/>
  </g>
</svg>